<svg width="472" height="32" viewBox="0 0 472 32" fill="none" xmlns="http://www.w3.org/2000/svg">
<g clip-path="url(#clip0_12_67)">
<path d="M15.3212 3.35407C15.6659 4.44095 15.5249 5.41136 14.8983 6.26536L6.76764 16.222C6.48568 16.649 6.48568 16.9983 6.76764 17.27L14.8043 27.2848C15.4936 28.1388 15.6659 29.1092 15.3212 30.1961C15.1646 30.6619 14.8983 31.0501 14.5223 31.3606C14.1463 31.6712 13.739 31.8264 13.3003 31.8264H11.5144C10.8878 31.8264 10.3865 31.5547 10.0105 31.0113L0.610969 19.4244C0.203656 18.9197 0 18.2987 0 17.5611V15.9308C0 15.2709 0.203656 14.6499 0.610969 14.0676L10.0105 2.48068C10.3865 1.93725 10.8878 1.66553 11.5144 1.66553H13.3473C13.786 1.66553 14.1776 1.82079 14.5223 2.13133C14.8983 2.44187 15.1646 2.84945 15.3212 3.35407Z" fill="black"/>
<path d="M38.5321 25.6118C38.5321 26.7417 38.2486 27.7775 37.6816 28.7191C37.1146 29.6607 36.3586 30.414 35.4135 30.9789C34.4685 31.5439 33.4289 31.8264 32.2949 31.8264H23.7894C22.6554 31.8264 21.6001 31.5439 20.6235 30.9789C19.6785 30.414 18.9225 29.6607 18.3554 28.7191C17.7884 27.7775 17.5049 26.7417 17.5049 25.6118V6.2617C17.5049 5.1004 17.7884 4.04892 18.3554 3.10731C18.9225 2.1657 19.6785 1.41241 20.6235 0.847448C21.6001 0.282483 22.6554 0 23.7894 0H32.2949C33.4289 0 34.4685 0.282483 35.4135 0.847448C36.3586 1.41241 37.1146 2.1657 37.6816 3.10731C38.2486 4.04892 38.5321 5.1004 38.5321 6.2617V7.53287C38.5321 8.12921 38.3273 8.63143 37.9179 9.03945C37.5085 9.44747 36.9886 9.65149 36.3586 9.65149H35.0828C34.4842 9.65149 33.9645 9.44747 33.5234 9.03945C33.1139 8.63143 32.9091 8.12921 32.9091 7.53287V6.2617C32.9091 5.82227 32.7044 5.60257 32.2949 5.60257H23.7894C23.3799 5.60257 23.1752 5.82227 23.1752 6.2617V25.6118C23.1752 25.7687 23.2382 25.9256 23.3642 26.0826C23.4902 26.2081 23.632 26.2709 23.7894 26.2709H32.2949C32.4524 26.2709 32.5941 26.2081 32.7201 26.0826C32.8462 25.9256 32.9091 25.7687 32.9091 25.6118V24.1994C32.9091 23.603 33.1139 23.1008 33.5234 22.6928C33.9645 22.2534 34.4842 22.0337 35.0828 22.0337H36.3586C36.9886 22.0337 37.5085 22.2534 37.9179 22.6928C38.3273 23.1008 38.5321 23.603 38.5321 24.1994V25.6118Z" fill="black"/>
<path d="M62.1261 25.6118C62.1261 26.7417 61.8425 27.7775 61.2755 28.7191C60.7085 29.6607 59.9524 30.414 59.0074 30.9789C58.0624 31.5439 57.0228 31.8264 55.8887 31.8264H46.8163C45.6822 31.8264 44.6268 31.5439 43.6504 30.9789C42.7053 30.414 41.9493 29.6607 41.3823 28.7191C40.8153 27.7775 40.5317 26.7417 40.5317 25.6118V24.1994C40.5317 23.603 40.7363 23.1008 41.146 22.6928C41.5868 22.2534 42.1066 22.0337 42.7053 22.0337H44.0284C44.5954 22.0337 45.0835 22.2534 45.4932 22.6928C45.934 23.1008 46.1548 23.603 46.1548 24.1994V25.6118C46.1548 25.7687 46.2175 25.9256 46.3438 26.0826C46.501 26.2081 46.6587 26.2709 46.8163 26.2709H55.8887C56.046 26.2709 56.1878 26.2081 56.314 26.0826C56.4399 25.9256 56.503 25.7687 56.503 25.6118V19.3501C56.503 18.9421 56.2981 18.738 55.8887 18.738H46.8163C46.2175 18.738 45.6977 18.534 45.257 18.126C44.8472 17.6865 44.6427 17.1687 44.6427 16.5723V15.2541C44.6427 14.6577 44.8472 14.1555 45.257 13.7475C45.6977 13.3395 46.2175 13.1354 46.8163 13.1354H55.8887C56.046 13.1354 56.1878 13.0727 56.314 12.9471C56.4399 12.7902 56.503 12.6333 56.503 12.4763V6.2617C56.503 5.82227 56.2981 5.60257 55.8887 5.60257H46.8163C46.6587 5.60257 46.501 5.66536 46.3438 5.7909C46.2175 5.91643 46.1548 6.07338 46.1548 6.2617V7.53287C46.1548 8.12921 45.934 8.63143 45.4932 9.03945C45.0835 9.44747 44.5954 9.65149 44.0284 9.65149H42.7053C42.1066 9.65149 41.5868 9.44747 41.146 9.03945C40.7363 8.63143 40.5317 8.12921 40.5317 7.53287V6.2617C40.5317 5.1004 40.8153 4.04892 41.3823 3.10731C41.9493 2.1657 42.7053 1.41241 43.6504 0.847448C44.6268 0.282483 45.6822 0 46.8163 0H55.8887C57.0228 0 58.0624 0.282483 59.0074 0.847448C59.9524 1.41241 60.7085 2.1657 61.2755 3.10731C61.8425 4.04892 62.1261 5.1004 62.1261 6.2617V12.4763C62.1261 12.9785 62.0629 13.4807 61.937 13.9829C61.8108 14.4851 61.6377 14.9716 61.4173 15.4424C61.1651 15.7562 61.1651 16.0858 61.4173 16.4311C61.6377 16.8705 61.8108 17.3413 61.937 17.8435C62.0629 18.3457 62.1261 18.8479 62.1261 19.3501V25.6118Z" fill="black"/>
<path d="M64.31 3.35407C63.9652 4.44095 64.1062 5.41136 64.7331 6.26536L72.8634 16.222C73.1454 16.649 73.1454 16.9983 72.8634 17.27L64.8268 27.2848C64.1376 28.1388 63.9652 29.1092 64.31 30.1961C64.4665 30.6619 64.7331 31.0501 65.1089 31.3606C65.485 31.6712 65.8922 31.8264 66.3308 31.8264H68.1168C68.7436 31.8264 69.2445 31.5547 69.6207 31.0113L79.0202 19.4244C79.4274 18.9197 79.6312 18.2987 79.6312 17.5611V15.9308C79.6312 15.2709 79.4274 14.6499 79.0202 14.0676L69.6207 2.48068C69.2445 1.93725 68.7436 1.66553 68.1168 1.66553H66.2839C65.8453 1.66553 65.4537 1.82079 65.1089 2.13133C64.7331 2.44187 64.4665 2.84945 64.31 3.35407Z" fill="black"/>
</g>
<defs>
<clipPath id="clip0_12_67">
<rect width="472" height="31.8264" fill="white"/>
</clipPath>
</defs>
</svg>
