<svg width="34" height="34" viewBox="0 0 34 34" fill="none" xmlns="http://www.w3.org/2000/svg">
<path d="M12.9043 12.5509C12.9736 12.6209 13.0562 12.6764 13.1473 12.714C13.2384 12.7517 13.336 12.7708 13.4346 12.7701L21.1703 12.7701V20.5059C21.1772 20.7001 21.2592 20.8841 21.399 21.019C21.5388 21.154 21.7255 21.2294 21.9199 21.2294C22.1142 21.2294 22.3009 21.154 22.4408 21.019C22.5806 20.8841 22.6625 20.7001 22.6694 20.5059L22.6694 12.0206C22.6693 11.8219 22.5903 11.6313 22.4497 11.4907C22.3092 11.3502 22.1186 11.2712 21.9199 11.2711L13.4346 11.2711C13.2358 11.2712 13.0453 11.3502 12.9047 11.4907C12.7642 11.6313 12.6852 11.8219 12.6851 12.0206C12.6844 12.1191 12.7035 12.2168 12.7412 12.3079C12.7788 12.399 12.8342 12.4816 12.9043 12.5509Z" fill="black"/>
<path d="M11.4905 22.4506C11.6324 22.5888 11.8227 22.6662 12.0208 22.6662C12.2189 22.6662 12.4092 22.5888 12.5511 22.4506L22.4506 12.5511C22.5913 12.4104 22.6703 12.2197 22.6703 12.0208C22.6703 11.8218 22.5913 11.6311 22.4506 11.4904C22.31 11.3498 22.1192 11.2708 21.9203 11.2708C21.7214 11.2708 21.5306 11.3498 21.39 11.4904L11.4905 21.3899C11.3522 21.5318 11.2749 21.7221 11.2749 21.9202C11.2749 22.1184 11.3522 22.3087 11.4905 22.4506Z" fill="black"/>
</svg>
